<svg role="img" viewBox="0 0 24 24" xmlns="http://www.w3.org/2000/svg"><title>Amazon Web Services</title><path d="M11.53 17.51c-2.47.88-5.26 1.35-8 1.35A17.9 17.9 0 010 18c2.46.99 5.38 1.48 8.12 1.48 3.5 0 7.04-.6 10.37-1.74l-1.02-1.92c-1.97.74-3.95 1.13-5.94 1.13v.56zm10.7-3.92c-1.02 0-2.3.2-3.76.54l-1.33-4.83h-2.58l3.19 10.23h3.1l2.5-8.52 2.45 8.52h3.11l3.18-10.23h-2.55l-1.34 4.88c-1.44-.36-2.73-.59-3.93-.59zm-13.68 5.7c-.57.17-1.12.35-1.68.5v3.1h2.24v-2.92c.67-.18 1.32-.38 1.95-.58v-3.14c-.81.3-1.63.63-2.51 1.04zm13.12-2.12c1.45.31 2.84.77 4.16 1.4v-3.03c-1.37-.62-2.83-1.07-4.33-1.38v3.01zm-5.46-.22c1.23-.27 2.44-.45 3.61-.53v-3.15c-1.31.06-2.67.24-4.04.54v3.14zm-14.73 1.25c.67-.28 1.36-.5 2.05-.68v-3.06c-.85.19-1.67.43-2.45.73v3.01z" fill="#000"/></svg>